<svg xmlns="http://www.w3.org/2000/svg" height="24" width="24"><path d="M12 12Zm0 10.2q-2.125 0-3.988-.8-1.862-.8-3.237-2.175Q3.4 17.85 2.6 15.988 1.8 14.125 1.8 12t.8-3.988q.8-1.862 2.175-3.237Q6.15 3.4 8.012 2.6 9.875 1.8 12 1.8q1.025 0 2 .2.975.2 1.85.55v2.525q-.85-.45-1.812-.725-.963-.275-2.038-.275-3.3 0-5.612 2.312Q4.075 8.7 4.075 12q0 3.3 2.313 5.613Q8.7 19.925 12 19.925q3.3 0 5.613-2.312Q19.925 15.3 19.925 12q0-.775-.15-1.488-.15-.712-.4-1.362H21.8q.2.675.3 1.375.1.7.1 1.475 0 2.125-.8 3.988-.8 1.862-2.175 3.237Q17.85 20.6 15.988 21.4q-1.863.8-3.988.8Zm7.85-14.975V5.15h-2.075v-2.3h2.075V.775h2.3V2.85h2.075v2.3H22.15v2.075Zm-4.4 3.825q.65 0 1.1-.45.45-.45.45-1.1 0-.65-.45-1.1-.45-.45-1.1-.45-.65 0-1.1.45-.45.45-.45 1.1 0 .65.45 1.1.45.45 1.1.45Zm-6.9 0q.65 0 1.1-.45.45-.45.45-1.1 0-.65-.45-1.1-.45-.45-1.1-.45-.65 0-1.1.45Q7 8.85 7 9.5q0 .65.45 1.1.45.45 1.1.45ZM12 17.5q1.725 0 3.125-.988 1.4-.987 2-2.587H6.875q.6 1.6 2 2.587 1.4.988 3.125.988Z"/></svg>