<svg xmlns="http://www.w3.org/2000/svg" height="40" width="40"><path d="M20 20Zm0 17.625q-3.667 0-6.875-1.375t-5.604-3.771q-2.396-2.396-3.771-5.604T2.375 20q0-3.667 1.396-6.875T7.542 7.5q2.375-2.417 5.604-3.771T20 2.375q1.75 0 3.354.333 1.604.334 3.146.917v4.042q-1.458-.75-3.083-1.167-1.625-.417-3.417-.417-5.792 0-9.854 4.042Q6.083 14.167 6.083 20q0 5.792 4.063 9.854 4.062 4.063 9.854 4.063 5.792 0 9.854-4.042 4.063-4.042 4.063-9.875 0-1.25-.209-2.479-.208-1.229-.625-2.354h3.875q.334 1.208.5 2.375.167 1.166.167 2.458 0 3.625-1.375 6.854t-3.771 5.604q-2.396 2.375-5.604 3.771T20 37.625Zm13.167-24.958V8.5H29V4.792h4.167V.625h3.708v4.167h4.167V8.5h-4.167v4.167Zm-7.084 5.541q1.084 0 1.855-.77.77-.771.77-1.855 0-1.083-.75-1.854-.75-.771-1.833-.771-1.125 0-1.875.771t-.75 1.854q0 1.084.75 1.855.75.77 1.833.77Zm-12.208 0q1.125 0 1.875-.75t.75-1.875q0-1.083-.75-1.854-.75-.771-1.833-.771-1.084 0-1.855.771-.77.771-.77 1.854 0 1.084.75 1.855.75.77 1.833.77ZM20 29.583q3 0 5.458-1.666 2.459-1.667 3.459-4.459H11.083q1.042 2.792 3.479 4.459Q17 29.583 20 29.583Z"/></svg>