<svg xmlns="http://www.w3.org/2000/svg" height="40" width="40"><path d="M30.417 23.167v-5.292h-5.25v-3.458h5.25v-5.25h3.5v5.25h5.25v3.458h-5.25v5.292Zm-15.375-3.584q-3.125 0-5.146-2.021-2.021-2.02-2.021-5.145 0-3.084 2.021-5.104Q11.917 5.292 15 5.292q3.125 0 5.146 2.021 2.021 2.02 2.021 5.104 0 3.125-2.021 5.145-2.021 2.021-5.104 2.021ZM.75 35.042v-5.084q0-1.708.833-3.041.834-1.334 2.292-2.042 3.042-1.417 5.708-2.042 2.667-.625 5.417-.625 2.792 0 5.458.625 2.667.625 5.709 2.042 1.458.708 2.291 2.042.834 1.333.834 3.041v5.084Zm3.708-3.709h21.125V30q0-.583-.291-1.083-.292-.5-.75-.709-2.709-1.25-4.917-1.77-2.208-.521-4.625-.521-2.375 0-4.604.521-2.229.52-4.896 1.77-.458.209-.75.709T4.458 30Zm10.584-15.5q1.458 0 2.437-.979.979-.979.979-2.437 0-1.459-.979-2.438Q16.5 9 15.042 9q-1.459 0-2.459.979t-1 2.438q0 1.458 1 2.437 1 .979 2.459.979Zm0-3.416Zm0 18.916Z"/></svg>